# xmcd
#
# Track frame offsets:
#  150
#  10834
#  20892
#  33291
#  44875
#  55764
#  66715
#  77622
#  88497
#  99123
#  109611
#  120734
#  131934
#  142681
#  154172
#  166024
#  177138
#  188148
#  200182
#  211641
#  223100
#  235495
#  246480
#  257508
#  269071
#
# Disc length: 3773 seconds
#
# Revision: 0
# Processed by: cddbd v1.5.2PL0 Copyright (c) Steve Scherf et al.
# Submitted via: AltoMP3_Maker 3.0
#
DISCID=740ebb19
DTITLE=Various Artist - Specialty Hillbilly
DYEAR=1900
DGENRE=
TTITLE0=Johnny Tyler - Hillbilly Preacher
TTITLE1=Claude King - Got the World by the Tail
TTITLE2=Biff Collie - Don't Talk about Love
TTITLE3=Shot Jackson - I'm Trading You in on a Later Model
TTITLE4=Claude King - She's My Baby
TTITLE5=Jerry Green - Naggin' Women and Braggin' Men
TTITLE6=Bruce Trent - Alimony
TTITLE7=Smokey Stover - What a Shame
TTITLE8=Claude King - She Knows Why
TTITLE9=Shot Jackson - Grandad He's Not Old
TTITLE10=Joyce Lowrance and Earney Vandagriff - Hush Money
TTITLE11=Shot Jackson - If the Truth Was Known
TTITLE12=Jerry Green - Are You Going My Way
TTITLE13=Johnny Crockett - Just a Minute
TTITLE14=Shot jackson - You Can't Get the Country out of the Boy
TTITLE15=Leon Stancil - Why Don't You Quit Hangin' around
TTITLE16=Johnny Tyler - Take Your Blues and Go
TTITLE17=Bruce Trent - River Blues
TTITLE18=Earl Nunn - Double Talkin' Woman
TTITLE19=Claude King - Take It Like a Man
TTITLE20=Smokey Stover - Because I Loved Her So
TTITLE21=Johnny Tyler - A Sinner's Song
TTITLE22=Billy Lee - I Don't Know Why I Love You
TTITLE23=Claude King - I Think of You and Me
TTITLE24=Earney Vandagriff - Wishing
EXTD=
EXTT0=
EXTT1=
EXTT2=
EXTT3=
EXTT4=
EXTT5=
EXTT6=
EXTT7=
EXTT8=
EXTT9=
EXTT10=
EXTT11=
EXTT12=
EXTT13=
EXTT14=
EXTT15=
EXTT16=
EXTT17=
EXTT18=
EXTT19=
EXTT20=
EXTT21=
EXTT22=
EXTT23=
EXTT24=
PLAYORDER=
